<?xml version="1.0" encoding="UTF-8"?>
<svg version="1.1" xmlns="http://www.w3.org/2000/svg" viewBox="0 0 2000 2000">
<path d="M0 0 C6.86227435 4.21940002 9.48978116 11.10498521 12.89453125 18.140625 C13.53245756 19.43209542 14.17169519 20.72291886 14.81217957 22.01312256 C16.48615982 25.39331165 18.14348137 28.78139364 19.79699707 32.17163086 C21.81598788 36.30377865 23.85368873 40.426722 25.88951397 44.55059433 C27.47124842 47.75519103 29.04983744 50.96120817 30.61909485 54.17193604 C31.18025497 55.31692566 31.7414151 56.46191528 32.31958008 57.64160156 C32.81444412 58.6546637 33.30930817 59.66772583 33.81916809 60.71148682 C34.80458861 62.90597217 34.80458861 62.90597217 36 64 C36.27150879 63.44538086 36.54301758 62.89076172 36.82275391 62.31933594 C38.07373943 59.78771818 39.34899933 57.26909588 40.625 54.75 C41.05167969 53.87730469 41.47835937 53.00460937 41.91796875 52.10546875 C42.34980469 51.26113281 42.78164063 50.41679688 43.2265625 49.546875 C43.61408691 48.77182617 44.00161133 47.99677734 44.40087891 47.19824219 C48.30804156 41.82723569 54.45208702 39.8496338 60.46875 37.69921875 C61.3134787 37.38966248 62.1582074 37.0801062 63.02853394 36.76116943 C65.84966843 35.72907262 68.67469637 34.70812348 71.5 33.6875 C75.62868226 32.18524396 79.75569645 30.67842756 83.8828125 29.171875 C84.98517242 28.77040756 86.08753235 28.36894012 87.22329712 27.95530701 C95.64677987 24.88071461 104.04249042 21.73684863 112.43061066 18.56749535 C116.65502726 16.97271575 120.88213322 15.38507269 125.10905838 13.79695606 C128.58181376 12.49139922 132.05265485 11.1811423 135.51977539 9.86068726 C138.81450269 8.60608798 142.11371699 7.36407515 145.41650772 6.130867 C147.21972019 5.45376449 149.01789937 4.76330465 150.81588745 4.07244873 C156.77288007 1.8602072 161.63018219 0.22936128 168 1 C171.18909426 3.30700436 172.62028349 5.03954059 174.0625 8.6875 C173.9044353 17.06492931 168.40266056 25.50809825 164.74609375 32.88671875 C163.99465843 34.4150811 163.99465843 34.4150811 163.2280426 35.97431946 C161.63465394 39.21376326 160.03636712 42.45075718 158.4375 45.6875 C156.35103496 49.91967339 154.2667205 54.1529013 152.18359375 58.38671875 C151.6663121 59.43756653 151.14903046 60.48841431 150.61607361 61.57110596 C146.67015499 69.60122311 142.79451373 77.66329658 138.94515991 85.74006653 C134.92366768 94.17533713 130.83895787 102.57875406 126.73556519 110.97442627 C119.99529904 124.76778238 113.27388453 138.56949454 106.671875 152.4296875 C104.82236685 156.30764441 102.93155313 160.16225323 101.015625 164.0078125 C100.53939697 164.97509277 100.06316895 165.94237305 99.57250977 166.93896484 C98.67788174 168.75471437 97.77282024 170.56537729 96.85522461 172.36962891 C96.26753296 173.57111572 96.26753296 173.57111572 95.66796875 174.796875 C95.32016357 175.49135742 94.9723584 176.18583984 94.61401367 176.90136719 C93.29677045 181.4035631 95.50798265 185.38756484 97.5138855 189.38180542 C98.04628342 190.44928009 98.57868134 191.51675476 99.12721252 192.61657715 C99.71413376 193.77806274 100.30105499 194.93954834 100.90576172 196.13623047 C101.52896934 197.38016064 102.15164131 198.62435929 102.77381897 199.86880493 C104.11478028 202.54802326 105.45952669 205.22529466 106.80724716 207.90111923 C108.95021215 212.15588714 111.08476806 216.41483905 113.21829224 220.67434692 C116.60754374 227.43834963 120.00254735 234.19944668 123.39992726 240.95936978 C129.44656297 252.9910311 135.48389224 265.02736177 141.51855481 277.06503212 C143.62839637 281.27307764 145.74084618 285.47979991 147.85545981 289.68544924 C155.38622409 304.66617573 162.81105368 319.68834415 169.96850967 334.85217667 C170.86959932 336.72847285 171.81724306 338.58226779 172.77243042 340.43161011 C174.27559408 343.57661339 174.44032426 345.55079329 174 349 C172.2791868 352.78578904 170.83956654 354.47701109 167 356 C160.04997655 356.38797867 153.47025326 353.6305698 147.1015625 351.1953125 C145.52862175 350.60832329 145.52862175 350.60832329 143.92390442 350.00947571 C140.48718879 348.7244035 137.05613002 347.42490406 133.625 346.125 C131.23351094 345.22699562 128.84165992 344.3299546 126.44946289 343.43383789 C122.73944114 342.0432573 119.02973642 340.65188023 115.32209778 339.25495911 C106.64976496 335.98782416 97.96394107 332.75881626 89.26953125 329.55078125 C85.78095423 328.26127047 82.29252813 326.97135219 78.80413818 325.68133545 C76.56767579 324.85505384 74.33073997 324.03005249 72.09332275 323.20635986 C68.9757933 322.05769798 65.86069118 320.90267789 62.74609375 319.74609375 C61.82770218 319.40943192 60.90931061 319.07277008 59.96308899 318.72590637 C48.2469298 314.35723388 48.2469298 314.35723388 45.32421875 308.55078125 C44.88916016 307.70322266 44.45410156 306.85566406 44.00585938 305.98242188 C43.57080078 305.10134766 43.13574219 304.22027344 42.6875 303.3125 C42.23310547 302.41982422 41.77871094 301.52714844 41.31054688 300.60742188 C40.19463362 298.41083474 39.09177401 296.20865723 38 294 C37.72027344 294.58450928 37.44054687 295.16901855 37.15234375 295.77124023 C34.38547278 301.55019723 31.61131619 307.32560146 28.8326416 313.09889221 C26.83056997 317.26224866 24.84157918 321.43166442 22.85839844 325.60404968 C21.43044701 328.60424052 19.99537824 331.60099512 18.55908203 334.59719849 C17.85522987 336.0694591 17.15436171 337.54315015 16.45654297 339.01828003 C15.46842073 341.10586514 14.46977421 343.18810856 13.46875 345.26953125 C13.17746216 345.89145355 12.88617432 346.51337585 12.58605957 347.15414429 C10.59753258 351.2521222 8.49172708 355.09346709 4.03515625 356.71484375 C3.05869141 356.82505859 3.05869141 356.82505859 2.0625 356.9375 C1.41410156 357.02902344 0.76570312 357.12054687 0.09765625 357.21484375 C-3.09912786 356.88742638 -4.47641535 356.05185074 -7 354 C-9.02667085 351.02527302 -10.58984223 347.84578625 -12.1875 344.625 C-12.68217773 343.65216064 -13.17685547 342.67932129 -13.68652344 341.67700195 C-15.47859131 338.12820049 -17.24151643 334.56550413 -19 331 C-19.77098932 329.44156566 -20.54198579 327.88313485 -21.31298828 326.32470703 C-23.80329482 321.2844886 -26.27938279 316.23739455 -28.75 311.1875 C-29.15971039 310.35156311 -29.56942078 309.51562622 -29.99154663 308.65435791 C-31.16040368 306.26525904 -32.32340508 303.87340848 -33.484375 301.48046875 C-34.01787315 300.3913192 -34.01787315 300.3913192 -34.56214905 299.28016663 C-37 294.23023722 -37 294.23023722 -37 292 C-37.66 292 -38.32 292 -39 292 C-39.25523437 292.83273437 -39.51046875 293.66546875 -39.7734375 294.5234375 C-41.13824726 298.39184734 -42.7698569 301.97291437 -44.625 305.625 C-44.93050781 306.27984375 -45.23601562 306.9346875 -45.55078125 307.609375 C-49.93248549 316.16495561 -60.04650229 318.26601006 -68.5625 321.3515625 C-69.68733292 321.76375534 -70.81216583 322.17594818 -71.97108459 322.60063171 C-75.01513066 323.71549453 -78.06056746 324.82644292 -81.10676956 325.9353981 C-86.88483826 328.04003738 -92.65920724 330.15481539 -98.43359375 332.26953125 C-99.08274687 332.50706053 -99.73189999 332.74458981 -100.40072441 332.98931694 C-109.68058625 336.38649131 -118.9305035 339.85488017 -128.16015625 343.38671875 C-130.36262376 344.22641665 -132.56509757 345.06609804 -134.76757812 345.90576172 C-137.89281631 347.09795867 -141.01602299 348.29444911 -144.1340332 349.50543213 C-146.99262921 350.61542634 -149.85688261 351.70948016 -152.72265625 352.80078125 C-153.55040054 353.12785568 -154.37814484 353.45493011 -155.23097229 353.79191589 C-160.39182465 355.73669472 -164.47710219 356.48602698 -170 356 C-172.8100346 354.20636089 -174.50940468 352.98119065 -176 350 C-176.71997823 343.42702224 -174.58037477 339.1907149 -171.6875 333.5 C-170.67968278 331.45573149 -169.67187069 329.41146046 -168.6640625 327.3671875 C-168.09075195 326.21702148 -167.51744141 325.06685547 -166.92675781 323.88183594 C-164.74544787 319.49899501 -162.60240961 315.09772419 -160.4609375 310.6953125 C-160.06423355 309.87979919 -159.6675296 309.06428589 -159.25880432 308.22406006 C-158.44163595 306.54394133 -157.62454393 304.86378546 -156.80752563 303.18359375 C-155.55451603 300.60859252 -154.29946221 298.03459795 -153.04370117 295.4609375 C-148.66591187 286.48809595 -144.30604881 277.50755896 -140 268.5 C-134.88775034 257.80667176 -129.69687766 247.15236172 -124.5 236.5 C-117.91062428 222.9936323 -117.91062428 222.9936323 -111.359375 209.46875 C-110.56213013 207.81673584 -110.56213013 207.81673584 -109.7487793 206.13134766 C-108.76873243 204.08376969 -107.79841349 202.03149971 -106.83911133 199.97412109 C-104.58309302 195.14692668 -102.2723961 190.56595713 -99.26928711 186.15673828 C-96.42400489 180.88683593 -96.42400489 180.88683593 -96.46443176 175.06015015 C-97.38510882 172.85537309 -98.43536933 170.7729957 -99.55859375 168.6640625 C-99.96751862 167.85112732 -100.37644348 167.03819214 -100.79776001 166.20062256 C-101.69882805 164.41367852 -102.60983689 162.63172177 -103.52932739 160.85418701 C-105.050967 157.90108651 -106.53536856 154.93167013 -108.01147461 151.95556641 C-111.83137929 144.25884971 -115.694647 136.58410861 -119.55615234 128.90820312 C-125.20878143 117.6655871 -130.83506495 106.41909703 -136.21484375 95.04296875 C-140.45665445 86.08507051 -144.88498423 77.23074937 -149.37566376 68.39596176 C-150.50939104 66.16473728 -151.64094665 63.93242514 -152.77178955 61.69973755 C-153.53209732 60.19890994 -154.2924123 58.69808598 -155.05273438 57.19726562 C-155.43176785 56.4490196 -155.81080132 55.70077358 -156.20132065 54.92985344 C-158.15271579 51.08032053 -160.11002799 47.23397079 -162.07788086 43.39282227 C-164.01728223 39.60612802 -165.94085464 35.81176277 -167.85413551 32.0118084 C-168.57680326 30.58364029 -169.30516953 29.1583396 -170.0395565 27.73616219 C-171.05925285 25.75980189 -172.05835853 23.77422837 -173.0534668 21.78540039 C-173.62429489 20.6645253 -174.19512299 19.54365021 -174.7832489 18.3888092 C-176.28856989 14.19629554 -176.35530878 11.43273299 -176 7 C-174.20636089 4.1899654 -172.98119065 2.49059532 -170 1 C-163.44228931 0.50955165 -158.68137018 1.84244411 -152.6171875 4.234375 C-151.70893219 4.57985382 -150.80067688 4.92533264 -149.86489868 5.28128052 C-146.86354971 6.42559518 -143.86948394 7.58785279 -140.875 8.75 C-137.68200201 9.97282776 -134.48725318 11.19100458 -131.29241943 12.4090271 C-129.04920001 13.26461334 -126.80657537 14.12176046 -124.56451416 14.9803772 C-116.0992745 18.21802637 -107.60799966 21.38013686 -99.1015625 24.5078125 C-97.87790985 24.95809814 -96.6542572 25.40838379 -95.39352417 25.87231445 C-90.57849687 27.64317143 -85.76299918 29.41270339 -80.94525146 31.17614746 C-77.597388 32.40237754 -74.25166 33.63428258 -70.90625 34.8671875 C-69.91863678 35.22692657 -68.93102356 35.58666565 -67.91348267 35.95730591 C-51.69671923 41.9494966 -51.69671923 41.9494966 -47 51 C-45.89589644 53.00003484 -44.79172831 55.00003403 -43.6875 57 C-42.78920992 58.66534383 -41.89250018 60.33154605 -41 62 C-38.50224327 58.90015097 -36.78064862 55.73251288 -35.06640625 52.14453125 C-34.50542236 50.97583496 -33.94443848 49.80713867 -33.36645508 48.60302734 C-33.07219635 47.98466003 -32.77793762 47.36629272 -32.47476196 46.72918701 C-31.55343811 44.79346072 -30.62641925 42.86055383 -29.69799805 40.92822266 C-26.61518488 34.50548419 -23.55834441 28.07072314 -20.515625 21.62890625 C-19.97478271 20.48897217 -19.43394043 19.34903809 -18.87670898 18.17456055 C-17.85217964 16.01340647 -16.83324335 13.84958996 -15.82055664 11.68286133 C-15.36028076 10.71243896 -14.90000488 9.7420166 -14.42578125 8.7421875 C-14.02786377 7.8951123 -13.62994629 7.04803711 -13.2199707 6.17529297 C-10.14040923 0.68421978 -6.22762691 -0.73266199 0 0 Z " fill="#02E677" transform="translate(477,893)"/>
<path d="M0 0 C9.57 0 19.14 0 29 0 C30.4518252 4.3554756 31.53828473 8.23418707 32.40454102 12.69213867 C32.53002319 13.33193161 32.65550537 13.97172455 32.78479004 14.63090515 C33.19480545 16.72590053 33.59931033 18.82192067 34.00390625 20.91796875 C34.28971236 22.38202148 34.57592789 23.84599433 34.86253357 25.30989075 C35.61349893 29.15001622 36.36006433 32.99098236 37.10534668 36.83221436 C38.3006828 42.99066902 39.5013976 49.14807146 40.70463371 55.30498695 C41.12362427 57.45338507 41.53992047 59.60229287 41.95594788 61.75126648 C42.21215899 63.06621032 42.4684562 64.38113738 42.72485352 65.69604492 C42.9475441 66.84376877 43.17023468 67.99149261 43.39967346 69.17399597 C43.95724935 72.05874125 43.95724935 72.05874125 45 75 C45.22328476 74.08989166 45.44656952 73.17978333 45.67662048 72.24209595 C47.77822441 63.67730686 49.88233295 55.11313652 51.98891354 46.54957008 C53.07191975 42.14663796 54.15403341 37.74349042 55.23413086 33.33984375 C56.27595152 29.09239502 57.32008585 24.84552128 58.36584663 20.59904099 C58.7649894 18.97648884 59.16328921 17.3537291 59.56074333 15.73076248 C60.1163283 13.46269859 60.6748696 11.19538239 61.23413086 8.92822266 C61.39884888 8.2528093 61.56356689 7.57739594 61.73327637 6.8815155 C62.88594784 2.22810432 62.88594784 2.22810432 64 0 C73.9 0 83.8 0 94 0 C96.66191418 9.8291946 99.1585865 19.66724721 101.453125 29.58984375 C101.76108107 30.91366896 102.06925209 32.23744419 102.37762451 33.56117249 C103.17538312 36.98818712 103.97028856 40.4158569 104.76452637 43.84368896 C105.58082089 47.36430548 106.39991594 50.88427031 107.21875 54.40429688 C108.81518521 61.26890895 110.40859618 68.1342196 112 75 C115.98062404 56.64567554 119.78870169 38.26753207 123.40893555 19.83886719 C123.98507613 16.91032929 124.56463386 13.9824834 125.14453125 11.0546875 C125.31741165 10.16852753 125.49029205 9.28236755 125.66841125 8.36935425 C125.82915634 7.55894684 125.98990143 6.74853943 126.15551758 5.91357422 C126.29508377 5.20304901 126.43464996 4.4925238 126.57844543 3.76046753 C127 2 127 2 128 0 C137.57 0 147.14 0 157 0 C155.87498501 9.00011989 155.87498501 9.00011989 154.98880005 12.38742065 C154.78982117 13.15806854 154.59084229 13.92871643 154.38583374 14.72271729 C154.16972443 15.53851257 153.95361511 16.35430786 153.73095703 17.19482422 C153.50154419 18.077258 153.27213135 18.95969177 153.0357666 19.86886597 C152.28136673 22.76544918 151.51971752 25.6600702 150.7578125 28.5546875 C150.22794993 30.58185742 149.69848653 32.60913172 149.16940308 34.63650513 C148.06119155 38.87877047 146.94965035 43.12014375 145.83544922 47.36083984 C144.41296962 52.77507918 142.9964828 58.19086229 141.58221626 63.60725212 C140.48909636 67.79258404 139.39393861 71.9773804 138.29806137 76.16199112 C137.77545956 78.15763282 137.25320894 80.15336653 136.73132706 82.14919662 C135.99870477 84.94875618 135.26363064 87.74766053 134.52783203 90.54638672 C134.31577118 91.35813354 134.10371033 92.16988037 133.88522339 93.00622559 C132.37946965 98.71879648 130.70012636 104.33291214 129 110 C118.11 110 107.22 110 96 110 C92.625 99.875 92.625 99.875 91.37426758 94.65405273 C91.09420364 93.4935289 90.81413971 92.33300507 90.52558899 91.13731384 C90.23483994 89.91508621 89.94409088 88.69285858 89.64453125 87.43359375 C89.33803146 86.15895767 89.03153168 84.88432159 88.71574402 83.57106018 C87.90839156 80.21334181 87.10574581 76.85451617 86.30413818 73.49542236 C85.4823398 70.05549982 84.6560078 66.61666686 83.83007812 63.17773438 C82.21566058 56.45287123 80.60622215 49.72682518 79 43 C76.45221109 50.26172777 74.51280896 57.58743152 72.6796875 65.05859375 C72.37555939 66.28409439 72.07143127 67.50959503 71.75808716 68.77223206 C70.95705229 72.00117778 70.15884237 75.23079041 69.36242676 78.46087646 C68.23473862 83.0339018 67.1042715 87.60623122 65.9704895 92.17774963 C65.36822366 94.60663164 64.7682826 97.0360915 64.17086792 99.46617126 C63.900336 100.55813309 63.62980408 101.65009491 63.35107422 102.77514648 C63.11363495 103.7383934 62.87619568 104.70164032 62.63156128 105.69407654 C62 108 62 108 61 110 C50.11 110 39.22 110 28 110 C24.62490908 99.87472724 24.62490908 99.87472724 23.73483276 96.35151672 C23.53021423 95.54847107 23.3255957 94.74542542 23.11477661 93.91804504 C22.90271576 93.07150864 22.69065491 92.22497223 22.47216797 91.3527832 C22.23925049 90.43451752 22.00633301 89.51625183 21.76635742 88.57015991 C21.00493637 85.56453975 20.24842737 82.55770885 19.4921875 79.55078125 C18.96101332 77.44803697 18.42960702 75.34535132 17.89797974 73.24272156 C16.78806221 68.84977461 15.68050207 64.45624228 14.57470703 60.06225586 C13.15860562 54.43577057 11.73730355 48.81061495 10.31432915 43.18586445 C9.21784226 38.84974569 8.1237564 34.51302399 7.03042984 30.17610741 C6.5072002 28.10153819 5.98330814 26.02713592 5.45873642 23.95290565 C4.72645195 21.05554315 3.99732049 18.1574051 3.26904297 15.2590332 C3.05293365 14.4064241 2.83682434 13.553815 2.61416626 12.67536926 C2.41518738 11.88078308 2.2162085 11.0861969 2.01119995 10.26753235 C1.83903395 9.58418981 1.66686794 8.90084726 1.48948479 8.19679737 C0.88552941 5.48625841 0.4565376 2.73922562 0 0 Z " fill="#2BD46A" transform="translate(1384,1015)"/>
<path d="M0 0 C9.24 0 18.48 0 28 0 C36.5291437 10.12402423 36.5291437 10.12402423 38.9921875 15.3671875 C43.40975052 24.28549171 49.04396941 32.40741773 54.57901001 40.65863037 C57.36528022 44.82378623 60.1126347 49.01439773 62.86328125 53.203125 C63.81390751 54.64765938 64.76481091 56.09201144 65.71606445 57.53613281 C66.11050247 58.13516418 66.50494049 58.73419556 66.91133118 59.35137939 C67.9364939 60.90382983 68.96803981 62.45205972 70 64 C70.33 42.88 70.66 21.76 71 0 C80.24 0 89.48 0 99 0 C99 36.3 99 72.6 99 110 C89.76 110 80.52 110 71 110 C61.60948741 100.51742356 61.60948741 100.51742356 59.26953125 96.09570312 C58.74955566 95.1431665 58.22958008 94.19062988 57.69384766 93.20922852 C57.17612793 92.25330811 56.6584082 91.2973877 56.125 90.3125 C55.03167888 88.46112774 53.92883181 86.61534706 52.81640625 84.77539062 C51.22282842 82.12766963 49.64338798 79.48113185 48.13699341 76.78279114 C42.32788581 66.39055515 35.68851027 57.03276541 29 47 C28.67 67.79 28.34 88.58 28 110 C18.76 110 9.52 110 0 110 C0 73.7 0 37.4 0 0 Z " fill="#2CD46B" transform="translate(1587,1015)"/>
<path d="M0 0 C1.23169922 0.90685547 1.23169922 0.90685547 2.48828125 1.83203125 C14.17262589 11.91727429 18.87619881 26.59875524 20.22265625 41.45703125 C20.78482127 56.19553167 16.26034245 70.28939133 6.5625 81.375 C5.06013472 82.93466942 3.54080046 84.4782891 2 86 C1.44699219 86.57492187 0.89398437 87.14984375 0.32421875 87.7421875 C-9.72649798 97.36892859 -24.49588401 100.86570492 -38 101 C-54.0933449 99.88950632 -68.85019588 94.35118091 -80.0859375 82.421875 C-91.01151186 68.59767887 -95.24815845 52.98281221 -93.375 35.5 C-91.62131261 24.13006651 -87.16231298 14.9411881 -80 6 C-79.50113281 5.37480469 -79.00226563 4.74960938 -78.48828125 4.10546875 C-70.79064484 -4.48408523 -59.17077893 -9.89874416 -48 -12 C-46.7625 -12.2475 -45.525 -12.495 -44.25 -12.75 C-27.944031 -14.27764679 -12.75288581 -10.3646181 0 0 Z M-56 19 C-62.52189891 25.37367394 -65.13236938 32.58444709 -65.47485352 41.62280273 C-65.58593301 52.12358964 -64.02550123 60.60838602 -56.64453125 68.53125 C-49.5738583 74.84615031 -41.99858783 75.54840475 -32.8359375 75.3359375 C-25.32865606 74.67847701 -20.19189568 71.59416031 -15.0625 66.1875 C-9.09759908 58.73488262 -7.11850781 49.44455919 -8 40 C-9.99240006 28.86599964 -13.82532476 21.74713471 -23 15 C-33.92077672 9.994644 -46.70339532 11.38018018 -56 19 Z " fill="#2BD46A" transform="translate(1323,1026)"/>
<path d="M0 0 C8.91 0 17.82 0 27 0 C27.01458252 2.10890625 27.02916504 4.2178125 27.04418945 6.390625 C27.09465846 13.37964675 27.16127489 20.36844857 27.23571491 27.35725403 C27.28033108 31.59215368 27.31960614 35.82695907 27.34643555 40.06201172 C27.37255635 44.15355804 27.41301982 48.24473992 27.46318626 52.33605957 C27.47979591 53.89240973 27.4913468 55.44882285 27.49761391 57.00524902 C27.08789627 69.58681457 27.08789627 69.58681457 32.38056946 80.53759766 C37.33137075 84.98907326 41.98872088 85.35139063 48.39453125 85.28515625 C53.36289168 84.74139266 57.25139712 82.63202935 60.875 79.25 C64.95852347 71.08295305 64.34526865 62.0199864 64.4140625 53.125 C64.43279795 51.58942654 64.45237309 50.05386313 64.4727478 48.51831055 C64.52382426 44.50056914 64.56358007 40.48279445 64.60089111 36.46490479 C64.64108533 32.35542736 64.69210691 28.24608548 64.7421875 24.13671875 C64.83865646 16.09123212 64.92215075 8.04568836 65 0 C73.91 0 82.82 0 92 0 C92.09080992 9.55425173 92.16400724 19.1082111 92.20724869 28.66279888 C92.22801518 33.10064066 92.2561295 37.53816876 92.30175781 41.97583008 C92.34561021 46.26823264 92.36921907 50.56033583 92.37950897 54.85294533 C92.38683039 56.48061643 92.40112478 58.10827342 92.42292023 59.73581505 C92.62138038 75.18725407 90.28042626 88.0629398 79.34375 99.7734375 C69.5957619 108.83170946 56.96637571 111.84526998 44 112 C31.48337926 111.23713598 20.14838097 108.09413416 10.96875 99.23046875 C0.41637864 87.27530199 -0.440357 74.41008498 -0.29296875 59.1796875 C-0.28736355 57.46762466 -0.28309782 55.75555695 -0.28010559 54.04348755 C-0.26872949 49.56854635 -0.23932586 45.09390391 -0.20599365 40.61907959 C-0.17513553 36.04036499 -0.16156683 31.46160144 -0.14648438 26.8828125 C-0.11444811 17.92172358 -0.06174059 8.96093354 0 0 Z " fill="#29D369" transform="translate(962,1015)"/>
<path d="M0 0 C8.9564665 6.53463796 15.36415342 15.52020692 19 26 C19 27.32 19 28.64 19 30 C14.83766432 30.19875248 10.67788233 30.34335912 6.51220703 30.43945312 C5.09765497 30.47952725 3.68343111 30.53400895 2.27001953 30.60351562 C-9.53255471 31.16910763 -9.53255471 31.16910763 -13.17236328 28.26928711 C-14.734375 26.12109375 -14.734375 26.12109375 -15.87402344 23.97045898 C-18.00938454 20.23357706 -21.8573408 18.65519331 -25.890625 17.421875 C-34.01164632 15.79767074 -41.8816651 16.68291784 -49 21 C-54.75653201 25.90009881 -58.34545923 31.82225767 -59.30004883 39.37353516 C-59.4369622 41.90205224 -59.45871197 44.4055626 -59.4375 46.9375 C-59.45748047 47.77990234 -59.47746094 48.62230469 -59.49804688 49.49023438 C-59.49150927 57.98258197 -56.5696477 65.25883455 -50.7421875 71.4921875 C-44.69493931 76.72590455 -38.05083061 77.72504468 -30.21875 77.44140625 C-25.16301232 76.748083 -20.97859918 75.22045128 -17 72 C-16.64454102 71.35482422 -16.28908203 70.70964844 -15.92285156 70.04492188 C-14.47788293 67.49444475 -13.30115019 65.84028991 -11 64 C-5.85484494 62.98586034 -0.8266434 63.24420125 4.375 63.5 C5.79286851 63.54016808 7.21084612 63.57666312 8.62890625 63.609375 C12.0882195 63.69714207 15.54341275 63.83494717 19 64 C17.59336185 74.89644769 12.08434347 83.60100745 4 91 C-10.2820161 101.96112178 -25.49861077 104.25375949 -43 103 C-56.35056176 101.12500674 -68.09357989 93.96705416 -77 84 C-86.95380841 70.37549037 -90.20629716 55.04717857 -88.3125 38.375 C-86.14934332 24.51371968 -80.32028626 10.86862351 -69 2 C-62.41553919 -2.42033733 -55.72352163 -6.0728257 -48 -8 C-47.2884375 -8.18304687 -46.576875 -8.36609375 -45.84375 -8.5546875 C-29.73551695 -11.07713059 -13.71183066 -9.07248946 0 0 Z " fill="#2CD46B" transform="translate(894,1023)"/>
<path d="M0 0 C5.52467201 5.42082479 8.67364587 11.37030579 10 19 C10 20.65 10 22.3 10 24 C0.1 24 -9.8 24 -20 24 C-20.99 21.69 -21.98 19.38 -23 17 C-25.17924217 14.77535695 -26.37220322 14.10262063 -29.4375 13.6015625 C-30.283125 13.60929687 -31.12875 13.61703125 -32 13.625 C-32.845625 13.61726563 -33.69125 13.60953125 -34.5625 13.6015625 C-37.50489297 14.08253058 -38.86624386 14.93784642 -41 17 C-42.05368628 20.7932706 -42.48376715 22.97837033 -40.77734375 26.58203125 C-38.81639739 29.24978025 -37.64454956 30.04702535 -34.625 31.3125 C-33.66207031 31.72113281 -32.69914062 32.12976562 -31.70703125 32.55078125 C-28.77446707 33.69723153 -25.8361648 34.81630351 -22.88671875 35.91796875 C-21.97132324 36.26110107 -21.05592773 36.6042334 -20.11279297 36.95776367 C-18.28351294 37.63860033 -16.45060205 38.30978112 -14.61376953 38.9699707 C-7.40065653 41.62810413 -0.69219937 44.88369406 4.8125 50.375 C5.35519531 50.89835937 5.89789062 51.42171875 6.45703125 51.9609375 C12.17382678 59.51579133 11.781075 68.02651334 11 77 C9.21979328 85.0851055 4.63758265 91.74436611 -2.13671875 96.5 C-15.69246293 104.44891806 -29.76839073 105.23388732 -45 102 C-55.32209344 98.97413809 -63.72166051 93.7042087 -69 84.125 C-71.61129205 78.92054987 -71.35718103 75.42818974 -72 69 C-62.43 69 -52.86 69 -43 69 C-41.68 71.64 -40.36 74.28 -39 77 C-36.73066934 79.34358279 -35.58779923 79.90276347 -32.37890625 80.43359375 C-27.95961122 80.43972315 -24.84845027 80.44119414 -20.875 78.375 C-18.55549442 75.4369596 -18 73.7418377 -18 70 C-19.81234028 65.52245343 -22.8458812 63.22102421 -27 61 C-30.69734987 59.5252777 -34.46519787 58.29243892 -38.25 57.0625 C-62.58000662 49.12741941 -62.58000662 49.12741941 -69.125 38.10546875 C-73.11638509 29.29755646 -72.92868573 20.31843711 -69.90234375 11.28125 C-66.70071389 3.18708621 -60.22538774 -2.85141577 -52.3125 -6.3125 C-35.00838572 -12.44159086 -14.86185002 -11.4206834 0 0 Z " fill="#2CD46B" transform="translate(1174,1023)"/>
<path d="M0 0 C1.32 0 2.64 0 4 0 C4 157.41 4 314.82 4 477 C2.68 477 1.36 477 0 477 C-1.53181505 473.9363699 -1.13629114 470.7336882 -1.12584114 467.37247467 C-1.12729458 466.57216542 -1.12874802 465.77185617 -1.13024551 464.94729513 C-1.13392593 462.23685815 -1.13040967 459.5264767 -1.12698364 456.81604004 C-1.12813466 454.86470844 -1.12972204 452.91337707 -1.13171089 450.96204615 C-1.13590694 445.57747583 -1.13381227 440.19292311 -1.13072467 434.80835271 C-1.12847191 429.01006653 -1.13194956 423.21178349 -1.13470459 417.41349792 C-1.13916261 406.04578392 -1.13818568 394.67807649 -1.13529195 383.31036222 C-1.13303804 374.07558537 -1.13272534 364.84081037 -1.13381577 355.60603333 C-1.133969 354.29413588 -1.13412223 352.98223844 -1.13428011 351.63058653 C-1.13451967 349.63390086 -1.13475925 347.63721519 -1.135007 345.64052952 C-1.1380684 320.67084533 -1.13528873 295.70116475 -1.1299101 270.73148111 C-1.12516423 248.53045814 -1.12558885 226.32944089 -1.13037109 204.12841797 C-1.13572168 179.20541912 -1.13785132 154.28242346 -1.13475883 129.35942411 C-1.13444026 126.70427163 -1.13412589 124.04911916 -1.13381577 121.39396667 C-1.13366149 120.08741392 -1.13350721 118.78086116 -1.13334826 117.4347159 C-1.13248307 108.20581018 -1.13394604 98.9769065 -1.13629532 89.7480011 C-1.13909337 78.50855317 -1.13835495 67.26911223 -1.13301457 56.02966511 C-1.13037763 50.28979427 -1.12937239 44.54993509 -1.13266373 38.81006432 C-1.13562683 33.56346555 -1.13403363 28.31688935 -1.12868617 23.07029265 C-1.12756205 21.16454233 -1.12815307 19.25879013 -1.13056196 17.35304099 C-1.13356926 14.77784135 -1.13051795 12.20272072 -1.12584114 9.62752533 C-1.12818231 8.87449566 -1.13052347 8.12146599 -1.13293558 7.34561723 C-1.11415037 2.22830075 -1.11415037 2.22830075 0 0 Z " fill="#33EB91" transform="translate(725,833)"/>
</svg>
